<svg height="17px" viewBox="0 0 480 480.02377" width="25px" xmlns="http://www.w3.org/2000/svg"><path fill="#393d3d" d="m479.675781 165.734375c0-.054687-.054687-.09375-.070312-.144531-.050781-.152344-.109375-.300782-.175781-.445313-.121094-.277343-.257813-.542969-.410157-.800781l-.046875-.089844c-.316406-.523437-.660156-1.03125-1.03125-1.519531-.214844-.230469-.4375-.453125-.671875-.664063-.195312-.195312-.398437-.382812-.609375-.558593l-.105468-.097657-232-160c-2.734376-1.886718-6.351563-1.886718-9.085938 0l-232 160-.105469.097657c-.210937.175781-.414062.363281-.605469.558593-.238281.210938-.460937.433594-.675781.664063-.371093.488281-.714843.996094-1.03125 1.519531l-.046875.089844c-.152344.257812-.289062.523438-.40625.800781-.070312.144531-.128906.292969-.179687.445313 0 .050781-.054688.089844-.070313.144531-.160156.730469-.2656248 1.472656-.3203122 2.21875l-.015625.070313v304c0 4.417968 3.5820312 8 8.0000002 8h464c4.417969 0 8-3.582032 8-8v-304.070313c-.058594-.746094-.171875-1.488281-.335938-2.21875zm-239.664062-147.992187 206.3125 142.28125h-412.625zm205.191406 158.28125-205.191406 134.441406-205.191407-134.441406zm18.808594 288h-448v-281.191407l219.617187 143.886719c2.667969 1.757812 6.128906 1.757812 8.800782 0l219.582031-143.886719zm0 0"/><path d="m48.011719 408.023438h-16v40h40v-16h-24zm0 0"/><path d="m448.011719 408.023438h-16v24h-24v16h40zm0 0"/></svg>